<?xml version="1.0" standalone="no"?>
<!DOCTYPE svg PUBLIC "-//W3C//DTD SVG 1.1//EN" "http://www.w3.org/Graphics/SVG/1.1/DTD/svg11.dtd" >
<svg xmlns="http://www.w3.org/2000/svg">
<metadata></metadata>
<defs>
<font id="lightregular" horiz-adv-x="1138" >
<font-face units-per-em="2048" ascent="1462" descent="-586" />
<missing-glyph horiz-adv-x="569" />
<glyph horiz-adv-x="2048" />
<glyph horiz-adv-x="2048" />
<glyph unicode="&#xd;" horiz-adv-x="0" />
<glyph unicode=" "  horiz-adv-x="569" />
<glyph unicode="&#x09;" horiz-adv-x="569" />
<glyph unicode="&#xa0;" horiz-adv-x="569" />
<glyph unicode="!" horiz-adv-x="493" d="M162 0h172v217h-172v-217zM178 1026l31 -661h78l30 661v436h-139v-436z" />
<glyph unicode="&#x22;" horiz-adv-x="757" d="M178 965h129v497h-129v-497zM451 965h129v497h-129v-497z" />
<glyph unicode="#" d="M72 457h225l-64 -457h103l63 457h289l-63 -457h102l64 457h227v92h-215l45 319h227v93h-215l64 454h-103l-63 -454h-289l63 454h-102l-63 -454h-238v-93h225l-45 -319h-237v-92zM412 549l45 319h288l-45 -319h-288z" />
<glyph unicode="$" d="M59 467q8 -235 118.5 -354t348.5 -142v-176h80v174q193 0 328 105q145 115 145 305q0 192 -147 297q-101 71 -326 119v589q136 0 220 -91t85 -244h129q3 198 -125 323q-127 121 -309 121v160h-80v-160q-184 0 -303 -107q-127 -114 -127 -292q0 -192 129 -293 q91 -71 301 -117v-606q-335 39 -338 389h-129zM225 1079q0 157 90 234q80 71 211 71v-571q-150 35 -207 76q-94 64 -94 190zM606 78v590q147 -33 232 -86q112 -73 112 -205q0 -148 -106 -230q-93 -69 -238 -69z" />
<glyph unicode="%" horiz-adv-x="1820" d="M141 1059q0 -171 76 -275q82 -112 250 -112t250 112q76 104 76 275q0 172 -76 276q-81 111 -250 111t-250 -111q-76 -104 -76 -276zM250 1057q0 121 43 198q57 99 174 99q115 0 172 -99q45 -80 45 -198q0 -117 -45 -195q-57 -98 -172 -98q-117 0 -174 98q-43 74 -43 195z M389 -70h98l926 1555h-96zM1040 356q0 -170 76 -274q82 -113 250 -113t250 113q76 104 76 274q0 173 -76 277q-80 110 -250 110t-250 -110q-76 -104 -76 -277zM1149 354q0 122 43 199q57 98 174 98q115 0 172 -98q45 -80 45 -199q0 -116 -45 -194q-57 -99 -172 -99 q-117 0 -174 99q-43 74 -43 194z" />
<glyph unicode="&#x26;" horiz-adv-x="1251" d="M80 379q0 -192 127 -303q122 -107 315 -107q126 0 237 59t193 162l156 -190h162l-246 297q46 85 66 179.5t20 170.5h-129q0 -88 -9 -141t-34 -105l-320 385q137 87 199 156q88 98 88 223q0 131 -94 215q-95 82 -229 82q-136 0 -228 -82q-96 -83 -96 -215q0 -53 18 -100 q32 -86 101 -172l61 -80q-146 -77 -239 -172q-119 -126 -119 -262zM209 367q0 120 96 219q67 69 203 143l364 -442q-67 -95 -154.5 -152t-191.5 -57q-130 0 -219 80q-98 85 -98 209zM387 1165q0 89 56 139t139 50t138.5 -50t55.5 -139q0 -95 -74 -176q-43 -49 -151 -119 q-70 82 -107 140q-57 85 -57 155z" />
<glyph unicode="'" horiz-adv-x="569" d="M221 965h129v497h-129v-497z" />
<glyph unicode="(" horiz-adv-x="493" d="M104 545q0 -252 76 -488q65 -201 213 -448h103q-117 183 -191 428q-72 236 -72 461q0 569 263 995h-103q-289 -451 -289 -948z" />
<glyph unicode=")" horiz-adv-x="493" d="M-2 -391h102q289 451 289 948q0 254 -76 490q-59 182 -213 446h-102q117 -199 188 -428q74 -239 74 -461q0 -570 -262 -995z" />
<glyph unicode="*" horiz-adv-x="720" d="M55 1219l236 -80l-150 -201l66 -47l149 205l150 -205l65 47l-147 201l242 80l-31 75l-236 -84v252h-80v-252l-235 84z" />
<glyph unicode="+" horiz-adv-x="1228" d="M100 461h461v-461h109v461h460v108h-460v461h-109v-461h-461v-108z" />
<glyph unicode="," horiz-adv-x="569" d="M190 -193v-88q84 23 136 109q45 71 45 170v219h-172v-217h86q3 -55 -21 -111q-30 -69 -74 -82z" />
<glyph unicode="-" horiz-adv-x="757" d="M123 504h512v119h-512v-119z" />
<glyph unicode="." horiz-adv-x="569" d="M199 0h172v217h-172v-217z" />
<glyph unicode="/" horiz-adv-x="681" d="M-27 -31h111l625 1524h-105z" />
<glyph unicode="0" d="M70 707q0 -315 94 -494q125 -244 405 -244t408 244q92 180 92 496q0 313 -92 493q-128 244 -408 244t-405 -244q-94 -179 -94 -495zM199 709q0 253 63 407q87 221 307 221t310 -221q61 -156 61 -407q0 -250 -61 -408q-90 -223 -310 -223q-221 0 -307 223q-63 157 -63 408 z" />
<glyph unicode="1" d="M199 1065h379v-1065h129v1434h-105q-24 -177 -131 -234q-77 -40 -272 -43v-92z" />
<glyph unicode="2" d="M74 0h944v119h-797q12 71 62 133q88 106 247 205q79 47 121 75q165 106 252 211q109 135 109 299q0 191 -129 301q-121 103 -316 103q-227 0 -348 -143q-113 -134 -110 -365h129q-3 171 71 279q83 120 252 120q137 0 227 -75q95 -85 95 -218q0 -84 -28.5 -146t-90.5 -124 q-15 -15 -33 -30.5t-31 -27t-36.5 -29t-34 -25.5t-39 -27t-35 -23.5t-40 -26.5t-36.5 -24q-64 -44 -102 -71t-88 -70t-86 -84q-126 -146 -129 -336z" />
<glyph unicode="3" d="M68 457q-15 -230 127 -359q135 -129 362 -129q209 0 346 113q148 122 148 324q0 142 -77.5 236.5t-217.5 117.5v4q115 29 178 113.5t63 203.5q0 180 -137 279q-127 86 -307 86q-203 0 -330 -133q-59 -63 -91 -151t-32 -187h129q-3 163 82 262q87 100 244 100 q141 0 221 -63q92 -73 92 -207q0 -127 -94 -197q-84 -63 -196 -63h-109v-109h109q149 0 243 -73q101 -82 101 -230q0 -144 -113 -235q-101 -82 -254 -82q-172 0 -268 104q-99 107 -90 275h-129z" />
<glyph unicode="4" d="M61 356h662v-356h119v356h215v109h-215v969h-117l-664 -953v-125zM178 465l541 780h4v-780h-545z" />
<glyph unicode="5" d="M74 410q3 -202 139 -322q128 -119 332 -119q205 0 352 140q145 139 145 346q0 218 -129 356q-133 139 -352 139q-87 0 -168 -35.5t-135 -97.5l-4 4l92 475h627v119h-717l-139 -743h110q54 81 137.5 125.5t182.5 44.5q157 0 264 -107q102 -110 102 -266q0 -164 -96 -274 q-102 -117 -262 -117q-150 0 -248 92q-101 91 -104 240h-129z" />
<glyph unicode="6" d="M82 731q0 -411 121 -590q60 -90 153.5 -131t227.5 -41q210 0 350 140q135 135 135 346q0 212 -129 344q-132 135 -344 135q-122 0 -226 -65.5t-155 -172.5h-4q0 255 72 418q99 223 323 223q122 0 201.5 -72.5t97.5 -193.5h129q-46 375 -440 375q-216 0 -340 -148 q-97 -112 -143 -305q-29 -123 -29 -262zM238 446q0 164 94 269q99 110 262 110q161 0 256 -110q90 -107 90 -269q0 -156 -94 -258q-99 -110 -250 -110q-181 0 -272 108q-86 96 -86 260z" />
<glyph unicode="7" d="M104 1296h793q-292 -333 -430 -634q-136 -300 -160 -662h139q21 437 236 829q144 263 344 467v119h-922v-119z" />
<glyph unicode="8" d="M76 401q0 -207 145 -323q133 -109 348 -109q216 0 349 109q145 116 145 323q0 148 -76 243t-217 124v4q110 32 172 115t62 200q0 174 -138 273q-127 86 -299 86q-173 0 -297 -86q-137 -99 -137 -273q0 -118 60.5 -199t173.5 -116v-4q-133 -24 -209.5 -123.5t-81.5 -243.5 zM205 401q0 151 108 238q96 77 256 74q154 3 256 -76q109 -88 109 -236q0 -157 -107 -243q-100 -80 -258 -80q-156 0 -258 82q-106 85 -106 241zM262 1087q0 119 94 187q88 63 213 63q132 0 217 -63q88 -66 88 -187q0 -132 -92 -204q-86 -65 -213 -62q-127 -3 -211 60 q-96 72 -96 206z" />
<glyph unicode="9" d="M70 961q0 -213 129 -345q132 -135 344 -135q122 0 226 65.5t155 172.5h4q0 -255 -72 -418q-99 -223 -324 -223q-122 0 -201.5 72.5t-97.5 193.5h-129q46 -375 441 -375q214 0 342 148q95 113 141 307q29 121 29 260q0 410 -121 592q-115 170 -381 170q-211 0 -348 -137 t-137 -348zM199 969q0 153 96 260q100 108 248 108q179 0 274 -106q84 -100 84 -262q0 -166 -92 -269q-99 -110 -264 -110q-162 0 -254 110q-92 106 -92 269z" />
<glyph unicode=":" horiz-adv-x="569" d="M199 0h172v217h-172v-217zM199 807h172v217h-172v-217z" />
<glyph unicode=";" horiz-adv-x="569" d="M190 -193v-88q84 23 136 109q45 71 45 170v219h-172v-217h86q3 -55 -21 -111q-30 -69 -74 -82zM199 807h172v217h-172v-217z" />
<glyph unicode="&#x3c;" horiz-adv-x="1228" d="M94 463l1041 -479v112l-914 422l914 422v113l-1041 -480v-110z" />
<glyph unicode="=" horiz-adv-x="1228" d="M100 262h1030v109h-1030v-109zM100 666h1030v108h-1030v-108z" />
<glyph unicode="&#x3e;" horiz-adv-x="1228" d="M94 -16l1041 479v110l-1041 480v-113l914 -422l-914 -422v-112z" />
<glyph unicode="?" horiz-adv-x="1099" d="M111 1012h129q-3 164 79 266q88 106 250 106q122 0 207 -75q86 -80 86 -201q0 -138 -133 -264q-76 -69 -117 -113.5t-67 -91.5q-54 -99 -51 -272h129q1 18 2 53t2 51q3 76 28 125q18 36 84 98q20 18 74 72q88 83 133 162t45 186q0 172 -123 279q-115 100 -293 100 q-214 0 -342 -131q-122 -125 -122 -350zM473 0h172v217h-172v-217z" />
<glyph unicode="@" horiz-adv-x="1638" d="M96 737q0 -159 56 -299.5t159 -244.5q103 -107 242.5 -165.5t302.5 -58.5q193 0 367 99q172 98 266 266h-105q-88 -125 -233 -199q-139 -74 -295 -74q-137 0 -257 51t-208 142q-89 91 -137.5 211t-48.5 258q0 140 46.5 264t133.5 217q89 93 208.5 145t258.5 52 q118 0 224 -36.5t186 -104.5q172 -149 172 -398q0 -85 -28.5 -175t-76.5 -165q-49 -76 -113 -122t-129 -46q-47 0 -47 54q-3 43 21 116l196 590h-108l-51 -133q-66 172 -217 172q-105 0 -196.5 -51t-156.5 -139q-63 -85 -98 -190.5t-35 -211.5q0 -125 72 -209 q75 -88 199 -88q131 0 260 135h4q6 -66 43.5 -101.5t93.5 -35.5q86 0 171 46t153 128q70 82 110.5 191.5t40.5 228.5q0 275 -199 461q-195 176 -495 176q-155 0 -291.5 -57t-241.5 -160q-104 -103 -161.5 -242t-57.5 -297zM524 571q0 73 26 156.5t71 153.5q106 163 251 163 q59 0 111 -59q51 -58 51 -131q0 -68 -26.5 -152t-71.5 -155q-48 -78 -112 -126t-130 -48q-75 0 -122.5 53.5t-47.5 144.5z" />
<glyph unicode="A" horiz-adv-x="1290" d="M-14 0h149l176 455h666l178 -455h150l-574 1462h-156zM354 573l293 750l283 -750h-576z" />
<glyph unicode="B" horiz-adv-x="1366" d="M147 0h619q312 0 440 156q84 103 84 260q0 143 -84 240t-225 116v4q111 23 184 119q70 89 70 209q0 189 -141 282q-119 76 -328 76h-619v-1462zM287 119v583h479q188 0 286.5 -71t98.5 -211q0 -165 -115 -240q-93 -61 -270 -61h-479zM287 821v522h479q330 0 330 -274 q0 -107 -82 -174q-90 -74 -248 -74h-479z" />
<glyph unicode="C" horiz-adv-x="1441" d="M78 731q0 -322 172 -530q89 -110 220 -171t298 -61q255 0 418 160t190 428h-139q-22 -205 -143 -332q-130 -137 -326 -137q-275 0 -420 203q-131 176 -131 440t131 443q145 200 420 200q159 0 287 -92q124 -92 162 -262h139q-25 214 -203 352q-165 121 -385 121 q-166 0 -297 -60.5t-221 -168.5q-85 -104 -128.5 -242.5t-43.5 -290.5z" />
<glyph unicode="D" horiz-adv-x="1402" d="M147 0h506q672 15 672 731t-672 731h-506v-1462zM287 119v1224h297q317 0 458 -141q144 -144 144 -471t-144 -471q-141 -141 -458 -141h-297z" />
<glyph unicode="E" horiz-adv-x="1214" d="M147 0h1020v119h-880v577h815v119h-815v528h870v119h-1010v-1462z" />
<glyph unicode="F" horiz-adv-x="1099" d="M147 0h140v696h700v119h-700v528h788v119h-928v-1462z" />
<glyph unicode="G" horiz-adv-x="1517" d="M78 731q0 -322 172 -530q89 -110 220 -171t298 -61q166 0 295 72q140 75 211 225h4l18 -266h101v743h-621v-118h498v-11q0 -233 -129 -374q-139 -152 -377 -152q-275 0 -420 203q-131 176 -131 440t131 443q145 200 420 200q196 0 334 -121q124 -112 137 -245h139 q-39 229 -211 362q-159 123 -399 123q-166 0 -297 -60.5t-221 -168.5q-85 -104 -128.5 -242.5t-43.5 -290.5z" />
<glyph unicode="H" horiz-adv-x="1441" d="M147 0h140v709h868v-709h139v1462h-139v-635h-868v635h-140v-1462z" />
<glyph unicode="I" horiz-adv-x="454" d="M158 0h139v1462h-139v-1462z" />
<glyph unicode="J" horiz-adv-x="1024" d="M43 469q0 -220 78 -344q98 -156 330 -156q231 0 331 109q95 104 95 330v1054h-140v-995q0 -207 -55 -289q-60 -90 -219 -90q-187 0 -246 143q-5 13 -9.5 26.5t-8 29t-6 27.5t-4 29t-3 26.5t-2 28t-1 24.5t-1 25t-0.5 22h-139z" />
<glyph unicode="K" horiz-adv-x="1327" d="M147 0h140v502l280 260l609 -762h180l-684 858l653 604h-188l-850 -786v786h-140v-1462z" />
<glyph unicode="L" horiz-adv-x="1099" d="M147 0h959v119h-819v1343h-140v-1462z" />
<glyph unicode="M" horiz-adv-x="1705" d="M143 0h140v1264h4l501 -1264h132l499 1264h4v-1264h140v1462h-205l-504 -1282l-506 1282h-205v-1462z" />
<glyph unicode="N" horiz-adv-x="1441" d="M145 0h140v1237h4l852 -1237h155v1462h-139v-1237h-4l-852 1237h-156v-1462z" />
<glyph unicode="O" horiz-adv-x="1517" d="M70 731q0 -322 172 -530q89 -110 220 -171t298 -61q327 0 516 232q172 208 172 530q0 152 -43.5 290.5t-128.5 242.5q-189 229 -516 229q-166 0 -297 -60.5t-221 -168.5q-85 -104 -128.5 -242.5t-43.5 -290.5zM209 731q0 264 131 443q145 200 420 200q271 0 420 -200 q129 -180 129 -443t-129 -440q-149 -203 -420 -203q-275 0 -420 203q-131 176 -131 440z" />
<glyph unicode="P" horiz-adv-x="1290" d="M147 0h140v627h510q202 0 315 110q119 113 119 307t-119 310q-114 108 -315 108h-650v-1462zM287 745v598h479q151 0 238.5 -75.5t87.5 -223.5t-87.5 -223.5t-238.5 -75.5h-479z" />
<glyph unicode="Q" horiz-adv-x="1517" d="M70 731q0 -322 172 -530q89 -110 220 -171t298 -61q228 0 379 109l227 -172l70 86l-209 160q109 104 165 254t56 325q0 152 -43.5 290.5t-128.5 242.5q-189 229 -516 229q-166 0 -297 -60.5t-221 -168.5q-85 -104 -128.5 -242.5t-43.5 -290.5zM209 731q0 264 131 443 q145 200 420 200q271 0 420 -200q129 -180 129 -443q0 -149 -46.5 -280t-140.5 -220l-213 162l-71 -88l192 -145q-116 -72 -270 -72q-275 0 -420 203q-131 176 -131 440z" />
<glyph unicode="R" horiz-adv-x="1366" d="M147 0h140v649h528h19q157 0 223 -129q18 -38 29.5 -94t14.5 -92.5t7 -106.5q1 -7 2 -25.5t2 -27.5l6 -61q7 -76 29 -113h153q-23 29 -34 76q-26 90 -29 209q-1 16 -2 46.5t-2 43.5q-10 150 -59 221q-65 90 -197 109v4q138 29 211.5 129t73.5 243q0 190 -132 291 q-121 90 -313 90h-670v-1462zM287 768v575h520q157 0 236 -76t79 -214q0 -128 -94 -209q-88 -76 -221 -76h-520z" />
<glyph unicode="S" horiz-adv-x="1290" d="M74 481q-1 -17 -1 -34q0 -233 156 -355q152 -123 428 -123q235 0 377 86q102 63 154 181q29 71 29 151q0 168 -111 262q-96 78 -268 123l-357 88q-101 24 -155 70q-66 56 -66 153q0 153 113 228q92 63 254 63q161 0 274 -84q116 -92 125 -252h139q0 215 -161 340 q-148 115 -379 115q-272 0 -406 -152q-98 -108 -98 -260t100 -245q70 -65 230 -107l325 -80q129 -30 203 -82q98 -70 98 -182q0 -146 -135 -227q-111 -70 -252 -70q-218 0 -340 84q-137 94 -137 300v9h-139z" />
<glyph unicode="T" d="M-10 1343h510v-1343h139v1343h510v119h-1159v-119z" />
<glyph unicode="U" horiz-adv-x="1402" d="M133 526q0 -246 133 -391q149 -166 434 -166q286 0 439 166q131 146 131 391v936h-140v-905q0 -248 -112 -360q-106 -109 -318 -109q-209 0 -315 109q-113 113 -113 360v905h-139v-936z" />
<glyph unicode="V" horiz-adv-x="1214" d="M-14 1462l542 -1462h162l543 1462h-148l-471 -1308h-4l-475 1308h-149z" />
<glyph unicode="W" horiz-adv-x="1857" d="M0 1462l406 -1462h151l369 1309h4l370 -1309h148l403 1462h-139l-334 -1280h-4l-358 1280h-174l-357 -1280h-4l-331 1280h-150z" />
<glyph unicode="X" horiz-adv-x="1175" d="M-25 0h158l451 645l444 -645h168l-528 750l499 712h-155l-428 -612l-414 612h-164l496 -708z" />
<glyph unicode="Y" horiz-adv-x="1251" d="M-20 1462l575 -860v-602h139v602l578 860h-166l-479 -741l-482 741h-165z" />
<glyph unicode="Z" horiz-adv-x="1175" d="M10 0h1139v119h-983l962 1220v123h-1052v-119h897l-963 -1220v-123z" />
<glyph unicode="[" horiz-adv-x="493" d="M156 -391h329v108h-200v1667h200v109h-329v-1884z" />
<glyph unicode="\" horiz-adv-x="681" d="M-27 1493l625 -1524h111l-631 1524h-105z" />
<glyph unicode="]" horiz-adv-x="493" d="M8 -283v-108h330v1884h-330v-109h201v-1667h-201z" />
<glyph unicode="^" horiz-adv-x="1228" d="M90 487h119l403 799l410 -799h117l-471 928h-107z" />
<glyph unicode="_" horiz-adv-x="1024" d="M0 -154v-102h1024v102h-1024z" />
<glyph unicode="`" horiz-adv-x="378" d="M-63 1495l270 -289h104l-215 289h-159z" />
<glyph unicode="a" horiz-adv-x="1062" d="M66 279q0 -157 104 -234q94 -76 250 -76q143 0 235 58q75 49 150 157h4q0 -94 27 -133q36 -51 125 -51q42 0 83 8v109q-16 -8 -40 -8q-76 0 -76 77v562q0 193 -125 276q-95 63 -264 63q-191 0 -299 -83q-117 -88 -129 -271h129q4 125 79 185.5t203 60.5q131 0 197 -43 q80 -54 80 -174q0 -79 -43 -111q-30 -22 -123 -33q-11 -1 -58 -6.5t-62.5 -7.5t-55 -7t-60 -9t-51 -10.5t-54.5 -14t-46 -16.5q-180 -71 -180 -268zM195 287q0 75 47 119q78 73 276 100q86 9 168 24q92 16 109 48h4v-168q0 -150 -109 -244q-105 -88 -260 -88q-98 0 -164 57 q-71 61 -71 152z" />
<glyph unicode="b" horiz-adv-x="1175" d="M123 0h119v201h4q44 -109 145.5 -170.5t231.5 -61.5q226 0 358 168q117 149 117 391q0 245 -117 394q-129 165 -358 165q-122 0 -222 -59q-106 -63 -145 -172h-4v606h-129v-1462zM252 528q0 188 84 308q97 143 287 143q169 0 266 -143q80 -122 80 -308q0 -185 -80 -307 q-97 -143 -266 -143q-190 0 -287 143q-84 120 -84 307z" />
<glyph unicode="c" horiz-adv-x="1062" d="M70 528q0 -239 129 -393q139 -166 370 -166q180 0 295.5 109t141.5 301h-129q-12 -129 -101 -215t-207 -86q-174 0 -276 141q-94 129 -94 309q0 181 94 310q102 141 276 141q243 0 299 -254h129q-23 178 -137.5 270t-290.5 92q-231 0 -370 -165q-62 -74 -95.5 -177 t-33.5 -217z" />
<glyph unicode="d" horiz-adv-x="1175" d="M78 528q0 -242 117 -391q132 -168 358 -168q119 0 225 64q115 69 152 168h4v-201h119v1462h-129v-606h-4q-39 109 -146 172q-100 59 -221 59q-229 0 -358 -165q-117 -149 -117 -394zM207 528q0 187 82 308q94 143 264 143q189 0 289 -143q82 -121 82 -308 q0 -186 -82 -307q-100 -143 -289 -143q-170 0 -264 143q-82 121 -82 307z" />
<glyph unicode="e" horiz-adv-x="1062" d="M70 528q0 -241 112 -391q125 -168 365 -168q195 0 306.5 96.5t154.5 282.5h-129q-67 -270 -332 -270q-168 0 -266 137q-82 115 -82 279h813q1 18 1 36q0 94 -22 184q-26 108 -80 189q-126 184 -364 184t-365 -174q-112 -156 -112 -385zM199 602q16 157 102 262 q94 115 246 115q150 0 244 -115q89 -109 92 -262h-684z" />
<glyph unicode="f" horiz-adv-x="530" d="M12 948h181v-948h129v948h208v109h-208v92q0 108 18 145q26 60 123 60q30 0 94 -11v111q-55 8 -108 8q-146 0 -207 -86q-49 -69 -49 -223v-96h-181v-109z" />
<glyph unicode="g" d="M70 555q0 -244 112 -385q126 -158 365 -158q115 0 203 58.5t133 158.5h4v-143q0 -200 -81.5 -299.5t-258.5 -99.5q-119 0 -197 47q-93 54 -112 164h-129q11 -160 147 -244q119 -76 291 -76q248 0 362 135q107 127 107 373v971h-129v-183h-4q-38 86 -129 152 q-89 61 -207 61q-223 0 -352 -155q-125 -149 -125 -377zM199 541q0 183 82 301q95 137 266 137q170 0 262 -141q78 -119 78 -297q0 -171 -86 -289q-96 -131 -254 -131q-168 0 -264 131q-84 115 -84 289z" />
<glyph unicode="h" horiz-adv-x="1099" d="M121 0h129v616q3 158 92 261q89 102 240 102q147 0 213 -92q55 -76 55 -228v-659h129v680q0 202 -82 299q-91 108 -305 108q-114 0 -208 -58.5t-130 -154.5h-4v588h-129v-1462z" />
<glyph unicode="i" horiz-adv-x="378" d="M125 0h129v1057h-129v-1057zM125 1255h129v207h-129v-207z" />
<glyph unicode="j" horiz-adv-x="378" d="M-61 -281v-106q31 0 45 -2t45 -2q124 0 182 88q43 69 43 205v1155h-129v-1186q0 -76 -24 -115t-93 -39q-8 -1 -18 -1q-20 0 -51 3zM125 1255h129v207h-129v-207z" />
<glyph unicode="k" horiz-adv-x="1024" d="M123 0h129v401l209 174l418 -575h161l-481 666l451 391h-172l-586 -512v917h-129v-1462z" />
<glyph unicode="l" horiz-adv-x="378" d="M125 0h129v1462h-129v-1462z" />
<glyph unicode="m" horiz-adv-x="1705" d="M123 0h129v590q0 174 76 278q78 111 239 111q117 0 174 -76q47 -70 47 -186v-717h130v598q0 165 59 264q70 117 227 117q135 0 192.5 -66t57.5 -202v-711h129v717q0 370 -350 370q-109 0 -199.5 -52.5t-136.5 -153.5q-28 100 -111 153t-192 53q-238 0 -346 -208h-6v178 h-119v-1057z" />
<glyph unicode="n" horiz-adv-x="1099" d="M121 0h129v616q3 158 92 261q89 102 240 102q147 0 213 -92q55 -76 55 -228v-659h129v680q0 202 -82 299q-91 108 -305 108q-114 0 -208 -58.5t-130 -154.5h-4v183h-129v-1057z" />
<glyph unicode="o" d="M70 528q0 -239 129 -393q139 -166 370 -166q232 0 371 166q129 154 129 393q0 114 -33.5 217t-95.5 177q-139 165 -371 165q-231 0 -370 -165q-62 -74 -95.5 -177t-33.5 -217zM199 528q0 181 94 310q102 141 276 141q177 0 279 -141q92 -127 92 -310q0 -182 -92 -309 q-102 -141 -279 -141q-174 0 -276 141q-94 129 -94 309z" />
<glyph unicode="p" horiz-adv-x="1175" d="M123 -391h129v592h4q39 -109 145 -172q97 -60 222 -60q226 0 358 168q117 149 117 391q0 245 -117 394q-129 165 -358 165q-131 0 -232 -61t-145 -170h-4v201h-119v-1448zM252 528q0 204 78 316q94 135 293 135q169 0 266 -143q80 -122 80 -308q0 -185 -80 -307 q-97 -143 -266 -143q-190 0 -287 143q-84 120 -84 307z" />
<glyph unicode="q" horiz-adv-x="1175" d="M78 528q0 -242 117 -391q132 -168 358 -168q124 0 221 60q107 63 146 172h4v-592h129v1448h-119v-201h-4q-40 100 -152 168q-104 63 -225 63q-229 0 -358 -165q-117 -149 -117 -394zM207 528q0 187 82 308q94 143 264 143q189 0 289 -143q82 -121 82 -308 q0 -186 -82 -307q-100 -143 -289 -143q-170 0 -264 143q-82 121 -82 307z" />
<glyph unicode="r" horiz-adv-x="645" d="M123 0h129v563q0 170 110 277q105 103 258 103q12 0 25 -1v129q-11 0 -22 1q-127 0 -223 -64q-104 -69 -154 -199h-4v248h-119v-1057z" />
<glyph unicode="s" horiz-adv-x="985" d="M63 342q17 -190 130 -281.5t305 -91.5q167 0 286 74q138 85 138 244q0 126 -95 207q-84 70 -206 86l-172 38q-83 18 -144 56q-76 48 -76 123q0 94 82 143q66 39 168 39q121 0 193 -55q81 -65 84 -176h129q-9 168 -117 256q-102 83 -270 83q-161 0 -269 -67 q-129 -80 -129 -229q0 -123 86 -193q61 -49 209 -90l166 -37q114 -28 160 -59q72 -49 72 -133q0 -99 -99 -156q-78 -45 -190 -45q-133 0 -218.5 68.5t-92.5 195.5h-130z" />
<glyph unicode="t" horiz-adv-x="606" d="M14 948h185v-723v-5q0 -130 49 -180q50 -52 180 -52q39 0 57 2t58 2v110q-55 -6 -111 -6q-64 4 -84 36.5t-20 103.5v712h215v109h-215v317h-129v-317h-185v-109z" />
<glyph unicode="u" horiz-adv-x="1099" d="M121 371q0 -402 371 -402q120 0 216.5 58t147.5 163h4v-190h119v1057h-129v-555q0 -174 -76 -293q-84 -131 -242 -131q-149 0 -213 71.5t-69 219.5v688h-129v-686z" />
<glyph unicode="v" horiz-adv-x="948" d="M4 1057l408 -1057h137l395 1057h-133l-328 -928h-4l-332 928h-143z" />
<glyph unicode="w" horiz-adv-x="1517" d="M16 1057l340 -1057h142l258 889h4l260 -889h141l340 1057h-137l-270 -905h-4l-259 905h-145l-258 -905h-4l-270 905h-138z" />
<glyph unicode="x" horiz-adv-x="985" d="M2 0h160l325 444l332 -444h164l-412 551l381 506h-161l-295 -402l-301 402h-162l379 -508z" />
<glyph unicode="y" horiz-adv-x="948" d="M4 1057l422 -1053l-45 -121q-4 -7 -13 -27t-13 -28.5t-11.5 -22.5t-14 -23.5t-14.5 -17.5q-44 -47 -118 -47q-31 0 -88 11v-109q15 -6 38 -6q8 -1 29 -2t31 -2q115 0 172 49q27 23 50 63.5t56 116.5l459 1219h-129l-326 -901l-348 901h-137z" />
<glyph unicode="z" horiz-adv-x="948" d="M31 0h882v109h-727l699 856v92h-807v-109h643l-690 -844v-104z" />
<glyph unicode="{" horiz-adv-x="681" d="M170 496q81 0 119 -101q28 -74 28 -227v-303q0 -118 48 -187t133 -69h102v108h-41q-60 0 -86 64q-27 58 -27 147v289q0 83 -18 145q-35 112 -90 160q-18 15 -35 27v4q17 12 35 27q27 27 47 61q61 98 61 244v289q0 86 27 147q26 63 86 63h41v109h-102q-85 0 -133 -69 t-48 -187v-305q0 -151 -28 -225q-39 -103 -119 -103v-108z" />
<glyph unicode="|" horiz-adv-x="454" d="M174 -438h109v2048h-109v-2048z" />
<glyph unicode="}" horiz-adv-x="681" d="M82 -283v-108h102q85 0 133 69t48 187v305q0 153 28 227q38 101 119 101v108q-80 0 -119 103q-28 74 -28 225v303q0 118 -48 187t-133 69h-102v-109h41q59 0 88 -63q25 -64 25 -147v-289q0 -85 18 -144q35 -114 92 -161q15 -15 33 -27v-4q-18 -12 -33 -27 q-29 -26 -49 -59q-61 -98 -61 -246v-289q0 -86 -25 -147q-30 -64 -88 -64h-41z" />
<glyph unicode="~" horiz-adv-x="1228" d="M141 461l74 -74q65 141 172 141q37 0 79 -11t66 -21t74 -33q45 -22 73.5 -34t71 -23t80.5 -11q84 0 154 56q37 30 102 120l-73 74q-44 -68 -84.5 -104.5t-95.5 -36.5q-24 0 -61 11.5t-59.5 21t-80.5 34.5q-152 66 -236 66q-93 0 -161 -55q-51 -39 -95 -121z" />
<glyph unicode="&#xa8;" horiz-adv-x="378" d="M-61 1249h139v207h-139v-207zM301 1249h139v207h-139v-207z" />
<glyph unicode="&#xa9;" horiz-adv-x="1638" d="M57 731q0 -158 57.5 -297.5t161.5 -243.5q104 -106 244 -163.5t299 -57.5t299 57.5t244 163.5q104 104 161.5 243.5t57.5 297.5t-57.5 297.5t-161.5 245.5q-104 104 -244 161.5t-299 57.5t-299 -57.5t-244 -161.5q-104 -106 -161.5 -245.5t-57.5 -297.5zM176 731 q0 135 47.5 254.5t134.5 208.5q88 90 206.5 140t254.5 50q134 0 252.5 -50t206.5 -140q87 -89 135.5 -208.5t48.5 -254.5t-48.5 -254.5t-135.5 -208.5q-88 -90 -206.5 -140t-252.5 -50q-136 0 -254.5 50t-206.5 140q-87 89 -134.5 208.5t-47.5 254.5zM393 731 q0 -204 119 -336q117 -133 326 -133q145 0 252 80q106 79 127 229h-105q-20 -96 -91.5 -156.5t-180.5 -60.5q-161 0 -252 109q-86 103 -86 268t86 268q91 109 252 109q109 -1 181 -61.5t91 -155.5h105q-21 150 -127 229q-107 80 -252 80q-209 0 -326 -133 q-119 -132 -119 -336z" />
<glyph unicode="&#xab;" horiz-adv-x="872" d="M123 500l272 -256v137l-192 182l192 182v138l-272 -256v-127zM453 500l272 -256v137l-193 182l193 182v138l-272 -256v-127z" />
<glyph unicode="&#xad;" horiz-adv-x="757" d="M123 504h512v119h-512v-119z" />
<glyph unicode="&#xae;" horiz-adv-x="1638" d="M57 731q0 -158 57.5 -297.5t161.5 -243.5q104 -106 244 -163.5t299 -57.5t299 57.5t244 163.5q104 104 161.5 243.5t57.5 297.5t-57.5 297.5t-161.5 245.5q-104 104 -244 161.5t-299 57.5t-299 -57.5t-244 -161.5q-104 -106 -161.5 -245.5t-57.5 -297.5zM176 731 q0 135 47.5 254.5t134.5 208.5q88 90 206.5 140t254.5 50q134 0 252.5 -50t206.5 -140q87 -89 135.5 -208.5t48.5 -254.5t-48.5 -254.5t-135.5 -208.5q-88 -90 -206.5 -140t-252.5 -50q-136 0 -254.5 50t-206.5 140q-87 89 -134.5 208.5t-47.5 254.5zM543 291h108v391h183 l247 -391h127l-262 391q99 17 156 74q65 62 65 172q0 243 -286 243h-338v-880zM651 774v305h199q95 0 145 -28q64 -41 64 -123q0 -103 -82 -133q-57 -21 -182 -21h-144z" />
<glyph unicode="&#xb4;" horiz-adv-x="378" d="M68 1206h104l270 289h-159z" />
<glyph unicode="&#xbb;" horiz-adv-x="872" d="M147 244l273 256v127l-273 256v-138l193 -182l-193 -182v-137zM477 244l273 256v127l-273 256v-138l193 -182l-193 -182v-137z" />
<glyph unicode="&#x401;" horiz-adv-x="1214" d="M147 0h1020v119h-880v577h815v119h-815v528h870v119h-1010v-1462zM393 1638h139v207h-139v-207zM756 1638h139v207h-139v-207z" />
<glyph unicode="&#x402;" horiz-adv-x="1519" d="M-10 1343h469v-1343h139v342q0 210 94.5 320t272.5 110q159 0 254 -119q88 -114 88 -301q0 -207 -93 -334q-102 -139 -307 -151v-121q254 9 398 180q139 168 139 426q0 247 -121 389q-126 148 -346 148q-260 0 -373 -199h-6v653h551v119h-1159v-119z" />
<glyph unicode="&#x403;" horiz-adv-x="1062" d="M147 0h140v1343h764v119h-904v-1462zM446 1595h105l270 289h-159z" />
<glyph unicode="&#x404;" horiz-adv-x="1441" d="M78 731q0 -322 172 -530q89 -110 220 -171t298 -61q238 0 403 146q158 140 199 393h-137q-36 -192 -154 -301q-129 -119 -311 -119q-266 0 -412 186q-131 165 -141 422h797v117h-793q23 247 152 393q148 168 397 168q160 0 281 -86q127 -90 163 -254h140 q-36 218 -207 344q-156 115 -377 115q-166 0 -297 -60.5t-221 -168.5q-85 -104 -128.5 -242.5t-43.5 -290.5z" />
<glyph unicode="&#x405;" horiz-adv-x="1290" d="M74 481q-12 -258 155 -389q152 -123 428 -123q235 0 377 86q102 63 154 181q29 71 29 151q0 168 -111 262q-96 78 -268 123l-357 88q-101 24 -155 70q-66 56 -66 153q0 153 113 228q92 63 254 63q161 0 274 -84q116 -92 125 -252h139q0 215 -161 340q-148 115 -379 115 q-272 0 -406 -152q-98 -108 -98 -260t100 -245q70 -65 230 -107l325 -80q129 -30 203 -82q98 -70 98 -182q0 -146 -135 -227q-111 -70 -252 -70q-218 0 -340 84q-140 96 -137 309h-139z" />
<glyph unicode="&#x406;" horiz-adv-x="454" d="M158 0h139v1462h-139v-1462z" />
<glyph unicode="&#x407;" horiz-adv-x="454" d="M-25 1638h140v207h-140v-207zM158 0h139v1462h-139v-1462zM338 1638h139v207h-139v-207z" />
<glyph unicode="&#x408;" horiz-adv-x="1024" d="M43 469q0 -220 78 -344q98 -156 330 -156q231 0 331 109q95 104 95 330v1054h-140v-995q0 -207 -55 -289q-60 -90 -219 -90q-187 0 -246 143q-5 13 -9.5 26.5t-8 29t-6 27.5t-4 29t-3 26.5t-2 28t-1 24.5t-1 25t-0.5 22h-139z" />
<glyph unicode="&#x409;" horiz-adv-x="2056" d="M8 -6q70 -25 139 -25q168 0 244 127q62 106 72 342l33 905h524v-1343h534q202 0 318.5 113.5t116.5 308.5q0 196 -116 309t-319 113h-395v618h-801l-34 -995q-9 -222 -50 -297q-43 -82 -145 -82q-66 0 -121 25v-119zM1159 119v606h365q153 0 239 -80.5t86 -222.5 q0 -146 -85 -224.5t-240 -78.5h-365z" />
<glyph unicode="&#x40a;" horiz-adv-x="2058" d="M147 0h140v725h714v-725h555q202 0 318.5 113.5t116.5 308.5q0 196 -116 309t-319 113h-415v618h-140v-618h-714v618h-140v-1462zM1141 119v606h385q153 0 239 -80.5t86 -222.5q0 -146 -85 -224.5t-240 -78.5h-385z" />
<glyph unicode="&#x40b;" horiz-adv-x="1531" d="M-10 1343h469v-1343h139v678q55 34 158 65q107 29 180 29q179 0 258 -96q59 -74 59 -211v-465h140v489q0 176 -95 279q-111 121 -352 121q-92 0 -185 -25.5t-163 -62.5v542h551v119h-1159v-119z" />
<glyph unicode="&#x40c;" horiz-adv-x="1327" d="M147 0h140v502l280 260l609 -762h180l-684 858l653 604h-188l-850 -786v786h-140v-1462zM557 1595h105l270 289h-160z" />
<glyph unicode="&#x40e;" horiz-adv-x="1214" d="M-14 1462l559 -1124l-25 -53q-89 -197 -229 -197q-80 0 -156 37v-123q79 -33 160 -33q106 0 193 63.5t161 215.5l584 1214h-150l-462 -989l-478 989h-157zM326 1872q10 -124 87.5 -192t202.5 -68q123 0 201.5 68.5t95.5 191.5h-79q-12 -77 -74.5 -122.5t-143.5 -45.5 q-83 0 -141 43q-66 49 -69 125h-80z" />
<glyph unicode="&#x40f;" horiz-adv-x="1441" d="M147 0h504v-393h140v393h503v1462h-139v-1343h-868v1343h-140v-1462z" />
<glyph unicode="&#x410;" horiz-adv-x="1290" d="M-14 0h149l176 455h666l178 -455h150l-574 1462h-156zM354 573l293 750l283 -750h-576z" />
<glyph unicode="&#x411;" horiz-adv-x="1357" d="M147 0h691q202 0 318 113.5t116 308.5q0 197 -116 309.5t-318 112.5h-551v499h870v119h-1010v-1462zM287 119v606h520q153 0 239.5 -81t86.5 -222q0 -145 -85.5 -224t-240.5 -79h-520z" />
<glyph unicode="&#x412;" horiz-adv-x="1366" d="M147 0h619q312 0 440 156q84 103 84 260q0 143 -84 240t-225 116v4q111 23 184 119q70 89 70 209q0 189 -141 282q-119 76 -328 76h-619v-1462zM287 119v583h479q188 0 286.5 -71t98.5 -211q0 -165 -115 -240q-93 -61 -270 -61h-479zM287 821v522h479q330 0 330 -274 q0 -107 -82 -174q-90 -74 -248 -74h-479z" />
<glyph unicode="&#x413;" horiz-adv-x="1062" d="M147 0h140v1343h764v119h-904v-1462z" />
<glyph unicode="&#x414;" horiz-adv-x="1452" d="M12 119v-512h140v393h1130v-393h139v512h-153v1343h-906v-227q0 -336 -32 -549q-48 -321 -185 -567h-133zM293 119q129 238 178 559q31 201 31 536v129h626v-1224h-835z" />
<glyph unicode="&#x415;" horiz-adv-x="1214" d="M147 0h1020v119h-880v577h815v119h-815v528h870v119h-1010v-1462z" />
<glyph unicode="&#x416;" horiz-adv-x="2015" d="M-23 0h177l579 729l205 -215v-514h139v518l205 213l576 -731h180l-658 834l607 628h-189l-721 -768v768h-139v-764l-721 764h-188l608 -635z" />
<glyph unicode="&#x417;" horiz-adv-x="1284" d="M76 469q0 -236 152 -368t429 -132q257 0 406 133q139 124 139 316q0 280 -254 356v6q94 38 154.5 119.5t60.5 192.5q0 198 -143 303q-134 98 -352 98q-240 0 -385 -115q-148 -117 -160 -334h135q13 167 122.5 250.5t289.5 83.5q161 0 252 -71q102 -79 102 -224 q0 -124 -88 -190q-84 -66 -205 -66h-233v-118h233q153 0 242.5 -79.5t89.5 -213.5q0 -149 -106 -239.5t-293 -90.5q-211 0 -330 98q-125 103 -125 297h-133v-12z" />
<glyph unicode="&#x418;" horiz-adv-x="1441" d="M147 0h181l827 1313v-1313h139v1462h-180l-827 -1312v1312h-140v-1462z" />
<glyph unicode="&#x419;" horiz-adv-x="1441" d="M147 0h181l827 1313v-1313h139v1462h-180l-827 -1312v1312h-140v-1462zM432 1872q10 -123 87.5 -191.5t203.5 -68.5q123 0 201.5 68.5t95.5 191.5h-80q-12 -77 -74 -122.5t-143 -45.5q-83 0 -141 43q-67 50 -70 125h-80z" />
<glyph unicode="&#x41a;" horiz-adv-x="1327" d="M147 0h140v502l280 260l609 -762h180l-684 858l653 604h-188l-850 -786v786h-140v-1462z" />
<glyph unicode="&#x41b;" horiz-adv-x="1363" d="M8 -6q70 -25 139 -25q168 0 244 127q62 106 72 342l33 905h581v-1343h140v1462h-859l-34 -995q-9 -222 -50 -297q-43 -82 -145 -82q-66 0 -121 25v-119z" />
<glyph unicode="&#x41c;" horiz-adv-x="1705" d="M143 0h140v1264h4l501 -1264h132l499 1264h4v-1264h140v1462h-205l-504 -1282l-506 1282h-205v-1462z" />
<glyph unicode="&#x41d;" horiz-adv-x="1441" d="M147 0h140v709h868v-709h139v1462h-139v-635h-868v635h-140v-1462z" />
<glyph unicode="&#x41e;" horiz-adv-x="1517" d="M70 731q0 -322 172 -530q89 -110 220 -171t298 -61q327 0 516 232q172 208 172 530q0 152 -43.5 290.5t-128.5 242.5q-189 229 -516 229q-166 0 -297 -60.5t-221 -168.5q-85 -104 -128.5 -242.5t-43.5 -290.5zM209 731q0 264 131 443q145 200 420 200q271 0 420 -200 q129 -180 129 -443t-129 -440q-149 -203 -420 -203q-275 0 -420 203q-131 176 -131 440z" />
<glyph unicode="&#x41f;" horiz-adv-x="1441" d="M147 0h140v1343h868v-1343h139v1462h-1147v-1462z" />
<glyph unicode="&#x420;" horiz-adv-x="1290" d="M147 0h140v627h510q202 0 315 110q119 113 119 307t-119 310q-114 108 -315 108h-650v-1462zM287 745v598h479q151 0 238.5 -75.5t87.5 -223.5t-87.5 -223.5t-238.5 -75.5h-479z" />
<glyph unicode="&#x421;" horiz-adv-x="1441" d="M78 731q0 -322 172 -530q89 -110 220 -171t298 -61q255 0 418 160t190 428h-139q-22 -205 -143 -332q-130 -137 -326 -137q-275 0 -420 203q-131 176 -131 440t131 443q145 200 420 200q159 0 287 -92q124 -92 162 -262h139q-25 214 -203 352q-165 121 -385 121 q-166 0 -297 -60.5t-221 -168.5q-85 -104 -128.5 -242.5t-43.5 -290.5z" />
<glyph unicode="&#x422;" d="M-10 1343h510v-1343h139v1343h510v119h-1159v-119z" />
<glyph unicode="&#x423;" horiz-adv-x="1214" d="M-14 1462l559 -1124l-25 -53q-89 -197 -229 -197q-80 0 -156 37v-123q79 -33 160 -33q106 0 193 63.5t161 215.5l584 1214h-150l-462 -989l-478 989h-157z" />
<glyph unicode="&#x424;" horiz-adv-x="1544" d="M66 743q0 -271 190 -424q172 -141 446 -141v-178h140v178q267 3 442 141q195 153 195 424q0 266 -187 416q-86 69 -202.5 105t-247.5 36v162h-140v-162q-128 0 -243 -36t-201 -105q-91 -71 -141.5 -177t-50.5 -239zM203 743q0 214 145 330q132 106 354 109v-887 q-228 10 -356 115q-143 114 -143 333zM842 295v887q232 -10 356 -109q143 -114 143 -330t-145 -335q-134 -110 -354 -113z" />
<glyph unicode="&#x425;" horiz-adv-x="1175" d="M-25 0h158l451 645l444 -645h168l-528 750l499 712h-155l-428 -612l-414 612h-164l496 -708z" />
<glyph unicode="&#x426;" horiz-adv-x="1478" d="M147 0h1162v-393h139v512h-154v1343h-139v-1343h-868v1343h-140v-1462z" />
<glyph unicode="&#x427;" horiz-adv-x="1310" d="M104 1055q0 -211 107 -312q111 -108 364 -108q207 0 449 61v-696h139v1462h-139v-647q-265 -59 -442 -59q-184 0 -261 75t-77 232v397h-140v-405z" />
<glyph unicode="&#x428;" horiz-adv-x="2138" d="M147 0h1844v1462h-140v-1343h-712v1343h-140v-1343h-712v1343h-140v-1462z" />
<glyph unicode="&#x429;" horiz-adv-x="2174" d="M147 0h1858v-393h139v512h-153v1343h-140v-1343h-712v1343h-140v-1343h-712v1343h-140v-1462z" />
<glyph unicode="&#x42a;" horiz-adv-x="1615" d="M-10 1343h475v-1343h649q202 0 318 113.5t116 308.5q0 197 -116 309.5t-318 112.5h-510v618h-614v-119zM604 119v606h479q153 0 239.5 -81t86.5 -222q0 -145 -85.5 -224t-240.5 -79h-479z" />
<glyph unicode="&#x42b;" horiz-adv-x="1728" d="M147 0h650q202 0 318 113.5t116 308.5q0 197 -116 309.5t-318 112.5h-510v618h-140v-1462zM287 119v606h479q153 0 239.5 -81t86.5 -222q0 -145 -85.5 -224t-240.5 -79h-479zM1442 0h139v1462h-139v-1462z" />
<glyph unicode="&#x42c;" horiz-adv-x="1298" d="M147 0h650q202 0 318 113.5t116 308.5q0 197 -116 309.5t-318 112.5h-510v618h-140v-1462zM287 119v606h479q153 0 239.5 -81t86.5 -222q0 -145 -85.5 -224t-240.5 -79h-479z" />
<glyph unicode="&#x42d;" horiz-adv-x="1441" d="M70 508q27 -251 196 -395q166 -144 416 -144q325 0 516 234q166 207 166 528q0 332 -156 537q-172 225 -506 225q-214 0 -383 -113q-183 -125 -227 -346h137q48 166 183 258q122 82 290 82q253 0 388 -168q116 -145 133 -393h-781v-117h785q-10 -263 -135 -424 q-143 -184 -410 -184q-192 0 -322 117q-127 114 -151 303h-139z" />
<glyph unicode="&#x42e;" horiz-adv-x="2050" d="M147 0h140v709h315q2 -149 47.5 -282.5t130.5 -233.5q191 -224 512 -224q327 0 516 232q172 208 172 530q0 152 -43.5 290.5t-128.5 242.5q-189 229 -516 229q-302 0 -489 -197q-172 -184 -197 -469h-319v635h-140v-1462zM741 731q0 264 131 443q145 200 420 200 q271 0 420 -200q129 -180 129 -443t-129 -440q-149 -203 -420 -203q-275 0 -420 203q-131 176 -131 440z" />
<glyph unicode="&#x42f;" horiz-adv-x="1290" d="M8 0h176l502 649h318v-649h139v1462h-613q-202 0 -319 -102q-123 -107 -123 -303q0 -191 111 -296.5t313 -111.5zM227 1057q0 143 81.5 214.5t232.5 71.5h463v-575h-453q-152 0 -238 74.5t-86 214.5z" />
<glyph unicode="&#x430;" horiz-adv-x="1062" d="M66 279q0 -157 104 -234q94 -76 250 -76q143 0 235 58q75 49 150 157h4q0 -94 27 -133q36 -51 125 -51q42 0 83 8v109q-16 -8 -40 -8q-76 0 -76 77v562q0 193 -125 276q-95 63 -264 63q-191 0 -299 -83q-117 -88 -129 -271h129q4 125 79 185.5t203 60.5q131 0 197 -43 q80 -54 80 -174q0 -79 -43 -111q-30 -22 -123 -33q-11 -1 -58 -6.5t-62.5 -7.5t-55 -7t-60 -9t-51 -10.5t-54.5 -14t-46 -16.5q-180 -71 -180 -268zM195 287q0 75 47 119q78 73 276 100q86 9 168 24q92 16 109 48h4v-168q0 -150 -109 -244q-105 -88 -260 -88q-98 0 -164 57 q-71 61 -71 152z" />
<glyph unicode="&#x431;" d="M88 580q0 -285 127 -445q128 -166 363 -166q219 0 354 148t135 391q0 238 -129 383q-131 147 -334 147q-265 0 -391 -231h-6q34 237 133 342q94 102 274 117l158 14q133 12 191 53q51 36 73 129h-141q-9 -28 -37 -43q-27 -15 -110 -24l-156 -15q-269 -23 -391 -223 q-113 -188 -113 -577zM217 512q0 189 105 307q102 111 268 111q157 0 252 -115q96 -116 96 -307q0 -201 -100 -318q-100 -112 -256 -112q-162 0 -263 125q-102 121 -102 309z" />
<glyph unicode="&#x432;" horiz-adv-x="1062" d="M121 0h493q185 0 282 77t97 224q0 108 -58 172.5t-165 85.5v4q81 21 129.5 80t48.5 148q0 125 -84.5 195.5t-245.5 70.5h-497v-1057zM248 106v396h358q260 0 260 -199q0 -100 -64 -148.5t-198 -48.5h-356zM248 602v348h354q223 0 223 -178q0 -81 -57 -125.5t-166 -44.5 h-354z" />
<glyph unicode="&#x433;" horiz-adv-x="819" d="M121 0h129v948h565v109h-694v-1057z" />
<glyph unicode="&#x434;" horiz-adv-x="1130" d="M12 109v-445h129v336h846v-336h129v445h-145v948h-688v-168q0 -264 -35.5 -451t-110.5 -329h-125zM270 109q71 151 105.5 333t34.5 437v69h432v-839h-572z" />
<glyph unicode="&#x435;" horiz-adv-x="1062" d="M70 528q0 -241 112 -391q125 -168 365 -168q195 0 306.5 96.5t154.5 282.5h-129q-67 -270 -332 -270q-168 0 -266 137q-82 115 -82 279h813q5 113 -21 220.5t-80 188.5q-126 184 -364 184t-365 -174q-112 -156 -112 -385zM199 602q16 157 102 262q94 115 246 115 q150 0 244 -115q89 -109 92 -262h-684z" />
<glyph unicode="&#x436;" horiz-adv-x="1517" d="M-10 0h157l388 532l159 -167v-365h129v371l156 164l387 -535h162l-459 621l414 436h-168l-492 -537v537h-129v-531l-487 531h-172l411 -441z" />
<glyph unicode="&#x437;" horiz-adv-x="993" d="M57 330q11 -171 121 -266t316 -95q189 0 309 99q115 95 115 245q0 108 -60 174q-55 58 -145 74v4q75 27 122.5 87t47.5 147q0 129 -99 208.5t-292 79.5q-172 0 -277 -75q-123 -86 -137 -262h127q24 229 284 229q137 0 205 -55q56 -50 56 -131q0 -90 -64 -141.5 t-160 -51.5h-145v-102h176q116 0 170.5 -51.5t54.5 -137.5q0 -111 -70.5 -171t-215.5 -60q-148 0 -220 64.5t-90 187.5h-129z" />
<glyph unicode="&#x438;" horiz-adv-x="1099" d="M121 0h160l569 905v-905h129v1057h-160l-569 -905v905h-129v-1057z" />
<glyph unicode="&#x439;" horiz-adv-x="1099" d="M121 0h160l569 905v-905h129v1057h-160l-569 -905v905h-129v-1057zM272 1483q10 -123 87.5 -191.5t203.5 -68.5q123 0 201.5 68.5t95.5 191.5h-80q-12 -77 -74 -122.5t-143 -45.5q-83 0 -141 43q-67 50 -70 125h-80z" />
<glyph unicode="&#x43a;" horiz-adv-x="1024" d="M123 0h129v377l215 192l412 -569h161l-475 659l445 398h-172l-586 -537v537h-129v-1057z" />
<glyph unicode="&#x43b;" horiz-adv-x="1089" d="M4 -8q51 -23 113 -23q126 0 194 82q71 90 80 297l21 600h428v-948h129v1057h-686l-23 -695q-9 -175 -43 -231q-32 -53 -108 -53q-55 0 -105 20v-106z" />
<glyph unicode="&#x43c;" horiz-adv-x="1368" d="M121 0h129v870h6l371 -870h114l371 870h6v-870h129v1057h-172l-389 -912l-393 912h-172v-1057z" />
<glyph unicode="&#x43d;" horiz-adv-x="1099" d="M121 0h129v498h600v-498h129v1057h-129v-451h-600v451h-129v-1057z" />
<glyph unicode="&#x43e;" d="M70 528q0 -239 129 -393q139 -166 370 -166q232 0 371 166q129 154 129 393q0 114 -33.5 217t-95.5 177q-139 165 -371 165q-231 0 -370 -165q-62 -74 -95.5 -177t-33.5 -217zM199 528q0 181 94 310q102 141 276 141q177 0 279 -141q92 -127 92 -310q0 -182 -92 -309 q-102 -141 -279 -141q-174 0 -276 141q-94 129 -94 309z" />
<glyph unicode="&#x43f;" horiz-adv-x="1099" d="M121 0h129v948h600v-948h129v1057h-858v-1057z" />
<glyph unicode="&#x440;" horiz-adv-x="1175" d="M123 -391h129v592h4q39 -109 145 -172q97 -60 222 -60q226 0 358 168q117 149 117 391q0 245 -117 394q-129 165 -358 165q-131 0 -232 -61t-145 -170h-4v201h-119v-1448zM252 528q0 204 78 316q94 135 293 135q169 0 266 -143q80 -122 80 -308q0 -185 -80 -307 q-97 -143 -266 -143q-190 0 -287 143q-84 120 -84 307z" />
<glyph unicode="&#x441;" horiz-adv-x="1062" d="M70 528q0 -239 129 -393q139 -166 370 -166q180 0 295.5 109t141.5 301h-129q-12 -129 -101 -215t-207 -86q-174 0 -276 141q-94 129 -94 309q0 181 94 310q102 141 276 141q243 0 299 -254h129q-23 178 -137.5 270t-290.5 92q-231 0 -370 -165q-62 -74 -95.5 -177 t-33.5 -217z" />
<glyph unicode="&#x442;" horiz-adv-x="911" d="M0 948h391v-948h129v948h391v109h-911v-109z" />
<glyph unicode="&#x443;" horiz-adv-x="948" d="M4 1057l422 -1053l-45 -121q-4 -7 -13 -27t-13 -28.5t-11.5 -22.5t-14 -23.5t-14.5 -17.5q-44 -47 -118 -47q-31 0 -88 11v-109q15 -6 38 -6q8 -1 29 -2t31 -2q115 0 172 49q27 23 50 63.5t56 116.5l459 1219h-129l-326 -901l-348 901h-137z" />
<glyph unicode="&#x444;" horiz-adv-x="1640" d="M78 524q0 -275 119 -420q109 -135 290 -135q179 0 263 135h6v-495h129v489h6q89 -129 256 -129q177 0 293 140q123 146 123 415q0 275 -105.5 419t-298.5 144q-86 0 -157.5 -37.5t-112.5 -105.5h-4v518h-129v-512h-4q-82 137 -263 137q-189 0 -300 -146t-111 -417z M207 524q0 232 86 348q80 107 221 107q99 0 170 -68q72 -72 72 -163v-441q0 -103 -67 -166t-169 -63q-145 0 -229 111t-84 335zM885 307v447q0 93 71 161q67 64 170 64q140 0 220 -107q88 -118 88 -348q0 -225 -88 -340q-79 -106 -226 -106q-101 0 -168 63t-67 166z" />
<glyph unicode="&#x445;" horiz-adv-x="985" d="M2 0h160l325 444l332 -444h164l-412 551l381 506h-161l-295 -402l-301 402h-162l379 -508z" />
<glyph unicode="&#x446;" d="M121 0h874v-336h129v445h-145v948h-129v-948h-600v948h-129v-1057z" />
<glyph unicode="&#x447;" horiz-adv-x="1034" d="M90 776q0 -178 89 -256t265 -78q152 0 340 54v-496h129v1057h-129v-451q-175 -53 -333 -53q-119 0 -175.5 53.5t-56.5 175.5v275h-129v-281z" />
<glyph unicode="&#x448;" horiz-adv-x="1615" d="M121 0h1374v1057h-129v-948h-494v948h-129v-948h-493v948h-129v-1057z" />
<glyph unicode="&#x449;" horiz-adv-x="1654" d="M121 0h1390v-336h129v445h-145v948h-129v-948h-494v948h-129v-948h-493v948h-129v-1057z" />
<glyph unicode="&#x44a;" horiz-adv-x="1265" d="M0 948h346v-948h528q154 0 244 85t90 234t-90 234.5t-244 85.5h-399v418h-475v-109zM475 109v421h371q111 0 173 -54.5t62 -156.5q0 -103 -61.5 -156.5t-173.5 -53.5h-371z" />
<glyph unicode="&#x44b;" horiz-adv-x="1372" d="M121 0h471q154 0 244 85t90 234t-90 234.5t-244 85.5h-342v418h-129v-1057zM250 109v421h313q111 0 173.5 -54.5t62.5 -156.5q0 -103 -62 -156.5t-174 -53.5h-313zM1122 0h129v1057h-129v-1057z" />
<glyph unicode="&#x44c;" horiz-adv-x="1040" d="M121 0h528q154 0 244 85t90 234t-90 234.5t-244 85.5h-399v418h-129v-1057zM250 109v421h371q111 0 173 -54.5t62 -156.5q0 -103 -61.5 -156.5t-173.5 -53.5h-371z" />
<glyph unicode="&#x44d;" horiz-adv-x="1062" d="M63 340q30 -173 147.5 -272t301.5 -99q105 0 194.5 39.5t153.5 112.5q133 152 133 395q0 267 -121 418q-125 153 -344 153q-181 0 -300 -89t-150 -248h133q30 111 112.5 170t202.5 59q148 0 236 -105q80 -97 96 -272h-493v-108h495q-6 -192 -100 -304t-248 -112 q-127 0 -211 66t-108 196h-130z" />
<glyph unicode="&#x44e;" horiz-adv-x="1554" d="M121 0h129v498h237q9 -226 138 -373q133 -156 360 -156q232 0 371 166q129 154 129 393q0 114 -33.5 217t-95.5 177q-139 165 -371 165q-213 0 -346 -139q-124 -127 -147 -342h-242v451h-129v-1057zM614 528q0 179 95 310q102 141 276 141q177 0 279 -141 q92 -127 92 -310q0 -182 -92 -309q-102 -141 -279 -141q-174 0 -276 141q-95 131 -95 309z" />
<glyph unicode="&#x44f;" horiz-adv-x="1062" d="M6 0h168l365 444h268v-444h129v1057h-526q-149 0 -237.5 -84.5t-88.5 -224.5q0 -135 82.5 -214t224.5 -85zM213 750q0 93 57 145.5t162 52.5h375v-395h-367q-113 0 -170 51.5t-57 145.5z" />
<glyph unicode="&#x451;" horiz-adv-x="1062" d="M70 528q0 -241 112 -391q125 -168 365 -168q195 0 306.5 96.5t154.5 282.5h-129q-67 -270 -332 -270q-168 0 -266 137q-82 115 -82 279h813q5 113 -21 220.5t-80 188.5q-126 184 -364 184t-365 -174q-112 -156 -112 -385zM199 602q16 157 102 262q94 115 246 115 q150 0 244 -115q89 -109 92 -262h-684zM295 1249h139v207h-139v-207zM657 1249h140v207h-140v-207z" />
<glyph unicode="&#x452;" horiz-adv-x="1095" d="M0 1194h121v-1194h129v586q0 162 94 262q90 100 242 100q264 0 264 -319v-412q0 -218 -103.5 -344t-300.5 -143v-121q242 12 390 176q143 159 143 414v450q0 408 -369 408q-260 0 -356 -213h-4v350h436v104h-436v164h-129v-164h-121v-104z" />
<glyph unicode="&#x453;" horiz-adv-x="819" d="M121 0h129v948h565v109h-694v-1057zM330 1206h104l271 289h-160z" />
<glyph unicode="&#x454;" horiz-adv-x="1062" d="M70 516q0 -243 133 -395t346 -152q182 0 296 98t150 273h-129q-30 -131 -111 -196.5t-202 -65.5q-152 0 -244 112q-97 115 -106 304h495v108h-493q18 172 109 274.5t241 102.5q243 0 301 -229h133q-30 161 -141.5 249t-294.5 88q-219 0 -352 -155q-131 -156 -131 -416z " />
<glyph unicode="&#x455;" horiz-adv-x="985" d="M63 342q17 -190 130 -281.5t305 -91.5q167 0 286 74q138 85 138 244q0 126 -95 207q-84 70 -206 86l-172 38q-83 18 -144 56q-76 48 -76 123q0 94 82 143q66 39 168 39q121 0 193 -55q81 -65 84 -176h129q-9 168 -117 256q-102 83 -270 83q-161 0 -269 -67 q-129 -80 -129 -229q0 -123 86 -193q61 -49 209 -90l166 -37q114 -28 160 -59q72 -49 72 -133q0 -99 -99 -156q-78 -45 -190 -45q-133 0 -218.5 68.5t-92.5 195.5h-130z" />
<glyph unicode="&#x456;" horiz-adv-x="378" d="M125 0h129v1057h-129v-1057zM125 1255h129v207h-129v-207z" />
<glyph unicode="&#x457;" horiz-adv-x="378" d="M-61 1249h139v207h-139v-207zM125 0h129v1057h-129v-1057zM301 1249h139v207h-139v-207z" />
<glyph unicode="&#x458;" horiz-adv-x="378" d="M-61 -281v-106q31 0 45 -2t45 -2q124 0 182 88q43 69 43 205v1155h-129v-1186q0 -76 -24 -115t-93 -39q-23 -2 -69 2zM125 1255h129v207h-129v-207z" />
<glyph unicode="&#x459;" horiz-adv-x="1597" d="M4 -8q51 -23 113 -23q126 0 194 82q71 90 80 297l21 600h372v-948h414q154 0 244 85t90 234t-90 234.5t-244 85.5h-285v418h-630l-23 -695q-9 -175 -43 -231q-32 -53 -108 -53q-55 0 -105 20v-106zM913 109v421h256q111 0 173.5 -54.5t62.5 -156.5q0 -103 -62 -156.5 t-174 -53.5h-256z" />
<glyph unicode="&#x45a;" horiz-adv-x="1593" d="M121 0h129v530h518v-530h426q154 0 244 85t90 234t-90 234.5t-244 85.5h-297v418h-129v-418h-518v418h-129v-1057zM897 109v421h268q111 0 173.5 -54.5t62.5 -156.5q0 -103 -62 -156.5t-174 -53.5h-268z" />
<glyph unicode="&#x45b;" horiz-adv-x="1095" d="M0 1194h121v-1194h129v586q0 162 94 262q90 100 242 100q264 0 264 -319v-629h129v649q0 408 -369 408q-260 0 -356 -213h-4v350h436v104h-436v164h-129v-164h-121v-104z" />
<glyph unicode="&#x45c;" horiz-adv-x="1024" d="M123 0h129v377l215 192l412 -569h161l-475 659l445 398h-172l-586 -537v537h-129v-1057zM412 1206h104l270 289h-159z" />
<glyph unicode="&#x45e;" horiz-adv-x="948" d="M4 1057l422 -1053l-45 -121q-4 -7 -13 -27t-13 -28.5t-11.5 -22.5t-14 -23.5t-14.5 -17.5q-44 -47 -118 -47q-31 0 -88 11v-109q15 -6 38 -6q8 -1 29 -2t31 -2q115 0 172 49q27 23 50 63.5t56 116.5l459 1219h-129l-326 -901l-348 901h-137zM190 1483 q10 -123 87.5 -191.5t203.5 -68.5q123 0 201.5 68.5t95.5 191.5h-80q-12 -77 -74 -122.5t-143 -45.5q-83 0 -141 43q-67 50 -70 125h-80z" />
<glyph unicode="&#x45f;" horiz-adv-x="1099" d="M121 0h364v-336h129v336h365v1057h-129v-948h-600v948h-129v-1057z" />
<glyph unicode="&#x490;" horiz-adv-x="1062" d="M147 0h140v1343h764v449h-140v-330h-764v-1462z" />
<glyph unicode="&#x491;" horiz-adv-x="819" d="M121 0h129v948h565v430h-129v-321h-565v-1057z" />
<glyph unicode="&#x2000;" horiz-adv-x="942" />
<glyph unicode="&#x2001;" horiz-adv-x="1884" />
<glyph unicode="&#x2002;" horiz-adv-x="942" />
<glyph unicode="&#x2003;" horiz-adv-x="1884" />
<glyph unicode="&#x2004;" horiz-adv-x="628" />
<glyph unicode="&#x2005;" horiz-adv-x="471" />
<glyph unicode="&#x2006;" horiz-adv-x="314" />
<glyph unicode="&#x2007;" horiz-adv-x="314" />
<glyph unicode="&#x2008;" horiz-adv-x="235" />
<glyph unicode="&#x2009;" horiz-adv-x="376" />
<glyph unicode="&#x200a;" horiz-adv-x="104" />
<glyph unicode="&#x2010;" horiz-adv-x="757" d="M123 504h512v119h-512v-119z" />
<glyph unicode="&#x2011;" horiz-adv-x="757" d="M123 504h512v119h-512v-119z" />
<glyph unicode="&#x2012;" horiz-adv-x="757" d="M123 504h512v119h-512v-119z" />
<glyph unicode="&#x2013;" horiz-adv-x="1024" d="M0 504h1024v119h-1024v-119z" />
<glyph unicode="&#x2014;" horiz-adv-x="2048" d="M266 504h1516v119h-1516v-119z" />
<glyph unicode="&#x2018;" horiz-adv-x="569" d="M195 965h172v217h-86q-3 58 20 112q26 60 76 80v88q-83 -21 -137 -106q-45 -74 -45 -172v-219z" />
<glyph unicode="&#x2019;" horiz-adv-x="569" d="M193 965q85 23 137 108q45 71 45 170v219h-172v-217h86q3 -53 -21 -112q-27 -66 -75 -80v-88z" />
<glyph unicode="&#x201a;" horiz-adv-x="569" d="M193 -193v-88q85 23 137 109q45 71 45 170v219h-172v-217h86q3 -54 -21 -113q-27 -66 -75 -80z" />
<glyph unicode="&#x201c;" horiz-adv-x="757" d="M131 965h172v217h-86q-3 56 21 112q26 60 75 80v88q-83 -21 -137 -106q-45 -74 -45 -172v-219zM446 965h172v217h-86q-3 56 21 112q26 60 76 80v88q-83 -21 -137 -106q-46 -76 -46 -172v-219z" />
<glyph unicode="&#x201d;" horiz-adv-x="757" d="M129 965q85 23 137 108q45 71 45 170v219h-172v-217h86q3 -55 -20 -112q-27 -66 -76 -80v-88zM444 965q87 23 138 108q45 71 45 170v219h-172v-217h86q3 -53 -21 -112q-27 -66 -76 -80v-88z" />
<glyph unicode="&#x201e;" horiz-adv-x="757" d="M129 -193v-88q85 23 137 109q45 71 45 170v219h-172v-217h86q3 -56 -20 -113q-27 -66 -76 -80zM444 -193v-88q86 23 138 109q45 71 45 170v219h-172v-217h86q3 -54 -21 -113q-27 -66 -76 -80z" />
<glyph unicode="&#x2022;" horiz-adv-x="1024" d="M147 731q0 -151 107 -258q105 -108 258 -108q152 0 260 108q107 107 107 258t-107 258q-110 107 -260 107q-151 0 -258 -107t-107 -258z" />
<glyph unicode="&#x2026;" horiz-adv-x="2048" d="M256 0h172v217h-172v-217zM938 0h172v217h-172v-217zM1620 0h172v217h-172v-217z" />
<glyph unicode="&#x202f;" horiz-adv-x="376" />
<glyph unicode="&#x2039;" horiz-adv-x="530" d="M109 500l272 -256v137l-193 182l193 182v138l-272 -256v-127z" />
<glyph unicode="&#x203a;" horiz-adv-x="530" d="M150 244l272 256v127l-272 256v-138l192 -182l-192 -182v-137z" />
<glyph unicode="&#x205f;" horiz-adv-x="471" />
<glyph unicode="&#x20ac;" d="M31 584h135q21 -183 92 -319.5t197 -216t293 -79.5q203 0 360 133v158q-94 -94 -174 -135t-182 -41q-193 0 -309 137.5t-144 362.5h578l38 92h-622q-2 4 -2 16v17q0 35 6 88h657l37 92h-682q39 206 153 329t296 123q194 0 327 -161l56 120q-128 158 -381 158 q-238 0 -390 -154.5t-198 -414.5h-104l-37 -92h131q-4 -66 -4 -80v-23q0 -14 2 -18h-90z" />
<glyph unicode="&#x2122;" horiz-adv-x="2027" d="M168 1370h274v-752h109v752h274v92h-657v-92zM975 618h108v746h4l299 -746h62l299 746h4v-746h109v844h-174l-265 -684l-272 684h-174v-844z" />
<glyph unicode="&#xe000;" horiz-adv-x="1054" d="M0 0v1055h1055v-1055h-1055z" />
</font>
</defs>
</svg>
